<svg width="34" height="35" viewBox="0 0 34 35" fill="none" xmlns="http://www.w3.org/2000/svg">
<g clipPath="url(#clip0_880_583)">
<path d="M29.2998 0.938477H4.70023C2.1084 0.938477 0 3.04688 0 5.63871V10.582C0 13.1738 2.1084 15.2822 4.70023 15.2822H5.72953V18.6689C5.72953 19.072 5.97258 19.4353 6.34445 19.5893C6.52649 19.6647 6.7268 19.6845 6.92005 19.6461C7.1133 19.6076 7.29083 19.5128 7.4302 19.3735L11.5208 15.2822H22.4792L26.5698 19.3735C26.8557 19.6599 27.2872 19.7424 27.6555 19.5893C28.0274 19.4353 28.2705 19.072 28.2705 18.6689V15.2822H29.2998C31.8916 15.2822 34 13.1738 34 10.582V5.63871C34 3.04688 31.8916 0.938477 29.2998 0.938477ZM6.90625 5.12207H11.0234C11.5733 5.12207 12.0195 5.56832 12.0195 6.11816C12.0195 6.66801 11.5733 7.11426 11.0234 7.11426H6.90625C6.35641 7.11426 5.91016 6.66801 5.91016 6.11816C5.91016 5.56832 6.35641 5.12207 6.90625 5.12207ZM15.0078 11.0986H6.90625C6.35641 11.0986 5.91016 10.6524 5.91016 10.1025C5.91016 9.5527 6.35641 9.10645 6.90625 9.10645H15.0078C15.5577 9.10645 16.0039 9.5527 16.0039 10.1025C16.0039 10.6524 15.5577 11.0986 15.0078 11.0986ZM27.0938 11.0986H18.9922C18.4423 11.0986 17.9961 10.6524 17.9961 10.1025C17.9961 9.5527 18.4423 9.10645 18.9922 9.10645H27.0938C27.6436 9.10645 28.0898 9.5527 28.0898 10.1025C28.0898 10.6524 27.6436 11.0986 27.0938 11.0986ZM27.0938 7.11426H15.0078C14.458 7.11426 14.0117 6.66801 14.0117 6.11816C14.0117 5.56832 14.458 5.12207 15.0078 5.12207H27.0938C27.6436 5.12207 28.0898 5.56832 28.0898 6.11816C28.0898 6.66801 27.6436 7.11426 27.0938 7.11426Z" fill="white"/>
<path d="M9.41524 28.0209C11.2345 28.0209 12.7094 26.5461 12.7094 24.7268C12.7094 22.9075 11.2345 21.4326 9.41524 21.4326C7.59593 21.4326 6.12109 22.9075 6.12109 24.7268C6.12109 26.5461 7.59593 28.0209 9.41524 28.0209Z" fill="white"/>
<path d="M9.41494 28.0205C6.47374 28.0205 4.08936 30.4048 4.08936 33.346V33.8677C4.08936 34.4589 4.56861 34.9382 5.15982 34.9382H13.67C14.2612 34.9382 14.7405 34.4589 14.7405 33.8677V33.346C14.7405 30.4048 12.3561 28.0205 9.41494 28.0205Z" fill="white"/>
<path d="M24.5852 28.0209C26.4045 28.0209 27.8793 26.5461 27.8793 24.7268C27.8793 22.9075 26.4045 21.4326 24.5852 21.4326C22.7659 21.4326 21.291 22.9075 21.291 24.7268C21.291 26.5461 22.7659 28.0209 24.5852 28.0209Z" fill="white"/>
<path d="M24.5849 28.0205C21.6437 28.0205 19.2593 30.4048 19.2593 33.346V33.8677C19.2593 34.4589 19.7385 34.9382 20.3297 34.9382H28.8399C29.4311 34.9382 29.9104 34.4589 29.9104 33.8677V33.346C29.9104 30.4048 27.5261 28.0205 24.5849 28.0205Z" fill="white"/>
</g>
<defs>
<clipPath id="clip0_880_583">
<rect width="34" height="34" fill="white" transform="translate(0 0.938477)"/>
</clipPath>
</defs>
</svg>
