<svg width="34" height="34" viewBox="0 0 34 34" fill="none" xmlns="http://www.w3.org/2000/svg">
<path d="M21.1245 2.79319L18.8862 2.47511L17.8891 0.503375C17.5506 -0.167792 16.4494 -0.167792 16.1109 0.503375L15.1138 2.47517L12.8756 2.79326C12.0545 2.90934 11.7265 3.92661 12.3289 4.50142L13.9349 6.02856L13.5565 8.18025C13.4148 8.98994 14.265 9.61257 14.9933 9.23864L17 8.20755L19.0068 9.23864C19.7452 9.61954 20.5837 8.98151 20.4435 8.18025L20.0652 6.02856L21.6712 4.50136C22.2736 3.92654 21.9456 2.90933 21.1245 2.79319ZM33.144 8.86802L30.9057 8.54994L29.9086 6.57821C29.5701 5.90704 28.4689 5.90704 28.1304 6.57821L27.1334 8.54994L24.8951 8.86802C24.074 8.9841 23.746 10.0014 24.3484 10.5762L25.9544 12.1034L25.5761 14.2551C25.4344 15.0648 26.2846 15.6874 27.0128 15.3135L29.0195 14.2823L31.0263 15.3134C31.7684 15.693 32.6025 15.0522 32.463 14.255L32.0847 12.1033L33.6907 10.5761C34.2931 10.0014 33.965 8.9841 33.144 8.86802ZM9.10502 8.86802L6.86674 8.54994L5.86958 6.57821C5.53105 5.90704 4.4299 5.90704 4.09143 6.57821L3.09434 8.54994L0.856055 8.86802C0.0349437 8.9841 -0.293036 10.0014 0.3094 10.5762L1.91543 12.1034L1.53705 14.2551C1.39541 15.0648 2.24554 15.6874 2.97381 15.3135L4.98047 14.2823L6.98727 15.3134C7.72723 15.693 8.56375 15.0538 8.42403 14.2551L8.04565 12.1034L9.65168 10.5762C10.254 10.0014 9.92607 8.98417 9.10502 8.86802ZM20.591 21.8018C22.0308 20.7096 22.9765 18.9975 22.9765 17.0549C22.9765 13.7592 20.2956 11.0784 17 11.0784C13.7043 11.0784 11.0234 13.7592 11.0234 17.0549C11.0234 18.9975 11.9692 20.7095 13.4089 21.8018C10.251 23.1902 8.03515 26.3389 8.03515 30.0041V32.9924C8.03515 33.5429 8.48067 33.9885 9.03125 33.9885H24.9687C25.5193 33.9885 25.9648 33.5429 25.9648 32.9924V30.0041C25.9648 26.3389 23.749 23.1902 20.591 21.8018Z" fill="white"/>
</svg>
