<svg width="34" height="34" viewBox="0 0 34 34" fill="none" xmlns="http://www.w3.org/2000/svg">
<g clipPath="url(#clip0_901_714)">
<path d="M20.9793 26.893H5.13708V4.1714H20.975V5.87119H23.1037V3.7074C23.1051 1.66914 21.4316 0 19.3948 0H6.72011C4.68037 0 3.01123 1.66914 3.01123 3.7074V30.2911C3.01123 32.3323 4.68037 34 6.72011 34H19.3948C21.4316 34 23.1051 32.3323 23.1051 30.2911V26.8536H20.9793V26.893ZM13.0552 32.1441C12.1156 32.1441 11.3569 31.384 11.3569 30.4458C11.3569 29.5047 12.1157 28.746 13.0552 28.746C13.9963 28.746 14.7565 29.5062 14.7565 30.4458C14.7565 31.384 13.9964 32.1441 13.0552 32.1441Z" fill="white"/>
<path d="M6.95215 6.45166H11.7042V9.34934H6.95215V6.45166ZM6.95215 13.8708H11.7042V16.7685H6.95215V13.8708ZM6.95215 21.6359H11.7042V24.5321H6.95215V21.6359ZM28.5707 15.1446C28.4029 14.2663 28.0629 13.4536 27.5815 12.743L29.2857 11.0374L27.545 9.3026L25.8438 11.0053C25.1361 10.5209 24.3191 10.1853 23.4436 10.0161V7.60133H20.9808V10.0161C20.1039 10.1853 19.2941 10.5223 18.5793 11.0053L16.881 9.3026L15.1403 11.0388L16.8416 12.7444C16.3616 13.455 16.0231 14.2677 15.8553 15.1446H13.4435V17.606H15.8552C16.0194 18.4644 16.3553 19.2808 16.843 20.0061L15.1403 21.7088L16.8809 23.4421L18.5836 21.7409C19.2956 22.2252 20.1083 22.5623 20.9851 22.733V25.1433H23.448V22.7316C24.3234 22.5638 25.1346 22.2238 25.8481 21.7423L27.5494 23.4436L29.29 21.7088L27.5858 20.0061C28.0673 19.2955 28.4058 18.4814 28.575 17.6046H30.9883V15.1446H28.5707ZM22.2152 19.0534C20.7343 19.0534 19.532 17.857 19.532 16.3746C19.532 14.8937 20.7342 13.69 22.2152 13.69C23.6976 13.69 24.894 14.8922 24.894 16.3746C24.894 17.8584 23.6946 19.0534 22.2152 19.0534Z" fill="white"/>
</g>
<defs>
<clipPath id="clip0_901_714">
<rect width="34" height="34" fill="white"/>
</clipPath>
</defs>
</svg>
