<svg width="34" height="34" viewBox="0 0 34 34" fill="none" xmlns="http://www.w3.org/2000/svg">
<path d="M19.8971 13.947C23.7423 13.947 26.8706 10.8188 26.8706 6.97355C26.8706 3.1283 23.7424 0 19.8971 0C16.0519 0 12.9236 3.1283 12.9236 6.97355C12.9236 10.8188 16.0519 13.947 19.8971 13.947ZM17.0293 3.21882C17.5253 2.72288 18.183 2.44974 18.8813 2.44974H18.901V1.61014H20.8932V2.44974H22.6673V4.44199H18.8813C18.7151 4.44199 18.5577 4.50787 18.438 4.62761C18.3184 4.74727 18.2525 4.90466 18.2525 5.07088C18.2525 5.41196 18.5405 5.70004 18.8814 5.70004L20.7645 5.69957C21.5369 5.6995 22.2642 6.00166 22.8128 6.55026C23.3614 7.09886 23.6635 7.8263 23.6634 8.59857C23.6634 10.1539 22.4321 11.4266 20.8932 11.4941V12.337H18.9009V11.4973H17.1268V9.50504H20.7647C21.2645 9.50504 21.6712 9.09829 21.6712 8.59837C21.6712 8.35823 21.5764 8.13118 21.4041 7.95892C21.2318 7.78666 21.0048 7.69182 20.7648 7.69182L18.8817 7.69229C17.4361 7.69229 16.2602 6.5164 16.2602 5.07102C16.2602 4.37273 16.5333 3.71482 17.0293 3.21882ZM0.294922 24.0935L10.2015 34.0001L16.2318 27.9697L6.32534 18.0631L0.294922 24.0935ZM11.3597 26.3103L12.8155 27.7662L11.4067 29.1749L9.95091 27.719L11.3597 26.3103Z" fill="white"/>
<path d="M33.3323 13.6101C32.7377 12.8313 31.6325 12.6641 30.8342 13.2323L25.1046 18.5179L22.8193 18.518C23.9196 18.5154 24.8107 17.6228 24.8107 16.522C24.8107 15.8732 24.501 15.297 24.0216 14.9324C22.7861 15.5753 21.3834 15.9393 19.897 15.9393C18.1221 15.9393 16.4661 15.4208 15.0722 14.5274L12.6229 14.5279L9.11523 18.0356L15.7768 24.6972L16.7911 23.677L26.1634 23.6768L33.0628 16.0991C33.8011 15.4735 33.9194 14.3793 33.3323 13.6101Z" fill="white"/>
</svg>
