<svg width="126" height="30" viewBox="0 0 126 30" fill="none" xmlns="http://www.w3.org/2000/svg">
<path fillRule="evenodd" clipRule="evenodd" d="M25.0934 29.9975H26.8497C27.0512 29.9894 27.2422 29.9056 27.3845 29.7627C27.5268 29.6198 27.61 29.4285 27.6175 29.2269V9.55823C27.6254 9.10568 27.5441 8.65599 27.3781 8.23494C27.2121 7.81388 26.9647 7.42972 26.65 7.10447C26.3354 6.77921 25.9597 6.51924 25.5445 6.33945C25.1293 6.15967 24.6827 6.06359 24.2303 6.05673H21.9847C21.7833 6.05278 21.5915 5.96977 21.4507 5.82561C21.3099 5.68146 21.2313 5.4877 21.232 5.28614V3.50151C21.2403 3.04949 21.1595 2.60027 20.994 2.17955C20.8286 1.75883 20.5819 1.37487 20.268 1.04964C19.9541 0.724419 19.5792 0.464309 19.1647 0.284199C18.7502 0.104088 18.3042 0.00751349 17.8524 0H3.38794C2.93448 0.00684687 2.48684 0.103333 2.07079 0.283906C1.65475 0.464479 1.2785 0.725574 0.963695 1.05217C0.648893 1.37876 0.401755 1.76441 0.236499 2.18692C0.0712436 2.60943 -0.00886662 3.06046 0.000777988 3.51406V23.2656C-0.0107099 24.1794 0.338503 25.0609 0.972633 25.7188C1.60676 26.3767 2.47465 26.7579 3.38794 26.7796H20.1531C20.3044 26.7795 20.4521 26.825 20.5772 26.9101L24.6669 29.8845C24.7946 29.964 24.9431 30.0033 25.0934 29.9975ZM21.0313 23.9634H3.4306C3.33025 23.9634 3.23092 23.9433 3.13843 23.9044C3.04595 23.8655 2.96218 23.8084 2.89205 23.7366C2.82192 23.6648 2.76684 23.5797 2.73007 23.4863C2.69329 23.3929 2.67555 23.2931 2.67789 23.1928V3.54669C2.6772 3.34513 2.75572 3.15138 2.89653 3.00722C3.03735 2.86306 3.22916 2.78006 3.4306 2.7761H17.8097C18.0112 2.78006 18.203 2.86306 18.3438 3.00722C18.4846 3.15138 18.5631 3.34513 18.5624 3.54669V5.28614C18.5631 5.4877 18.4846 5.68146 18.3438 5.82561C18.203 5.96977 18.0112 6.05278 17.8097 6.05673H7.09375C6.89231 6.06068 6.7005 6.14368 6.55969 6.28784C6.41888 6.432 6.34035 6.62575 6.34105 6.82731V19.9322C6.34035 20.1338 6.41888 20.3275 6.55969 20.4717C6.7005 20.6159 6.89231 20.6989 7.09375 20.7028H20.4718C20.6732 20.6989 20.865 20.6159 21.0059 20.4717C21.1467 20.3275 21.2252 20.1338 21.2245 19.9322V9.60341C21.2238 9.40186 21.3023 9.2081 21.4431 9.06395C21.584 8.91979 21.7758 8.83678 21.9772 8.83283H24.1726C24.374 8.83678 24.5658 8.91979 24.7066 9.06395C24.8475 9.2081 24.926 9.40186 24.9253 9.60341V25.6827C24.9285 25.7685 24.9078 25.8536 24.8655 25.9283C24.8231 26.0029 24.7607 26.0643 24.6854 26.1055C24.6101 26.1467 24.5248 26.1661 24.4391 26.1615C24.3534 26.1568 24.2706 26.1284 24.2002 26.0793L21.4729 24.0964C21.3432 24.0069 21.1888 23.9604 21.0313 23.9634ZM18.171 17.9066H9.38949C9.34107 17.9063 9.2932 17.8963 9.24869 17.8773C9.20418 17.8582 9.16391 17.8304 9.13026 17.7956C9.09661 17.7608 9.07025 17.7196 9.05273 17.6744C9.0352 17.6293 9.02686 17.5811 9.0282 17.5326V9.20934C9.02686 9.16091 9.0352 9.11271 9.05273 9.06755C9.07025 9.0224 9.09661 8.98119 9.13026 8.94636C9.16391 8.91153 9.20418 8.88377 9.24869 8.8647C9.2932 8.84564 9.34107 8.83566 9.38949 8.83534H18.171C18.2671 8.83862 18.3579 8.87979 18.4238 8.94986C18.4896 9.01994 18.525 9.11322 18.5223 9.20934V17.5326C18.525 17.6287 18.4896 17.722 18.4238 17.7921C18.3579 17.8622 18.2671 17.9033 18.171 17.9066ZM95.4561 4.18926C95.7265 4.18501 95.9934 4.12747 96.2416 4.01993C96.4897 3.91239 96.7142 3.75696 96.9023 3.56253C97.0904 3.3681 97.2383 3.13849 97.3375 2.88683C97.4368 2.63516 97.4855 2.36639 97.4809 2.09588C97.4809 1.55866 97.2675 1.04344 96.8878 0.663566C96.5081 0.283692 95.9931 0.0702811 95.4561 0.0702811C94.9191 0.0702811 94.4041 0.283692 94.0243 0.663566C93.6446 1.04344 93.4313 1.55866 93.4313 2.09588C93.4267 2.36639 93.4754 2.63516 93.5746 2.88683C93.6739 3.13849 93.8218 3.3681 94.0099 3.56253C94.1979 3.75696 94.4224 3.91239 94.6706 4.01993C94.9188 4.12747 95.1857 4.18501 95.4561 4.18926ZM72.3531 7.25151V6.08685H69.0914V20.5899H72.3531V10.6802L76.1593 9.0512V5.66014H76.1216L72.3531 7.25151ZM59.7127 6.07179C57.5926 6.07179 55.8689 6.78966 54.5567 8.24548C53.9431 8.93855 53.4648 9.74055 53.1466 10.6099C52.8227 11.5186 52.658 12.4765 52.6599 13.4413C52.6599 15.4769 53.2219 17.1637 54.366 18.4613C55.6205 19.8971 57.3467 20.5949 59.5421 20.5949C61.6798 20.5949 63.3859 19.877 64.678 18.4237C65.8974 17.0482 66.5172 15.3213 66.5172 13.2279C66.5172 11.1345 65.9175 9.44528 64.7358 8.12751C63.4812 6.75201 61.8128 6.07179 59.7127 6.07179ZM62.2619 16.3881C61.9609 16.7794 61.5706 17.0928 61.1235 17.302C60.6765 17.5112 60.1858 17.6101 59.6926 17.5904C59.1598 17.6096 58.6293 17.5099 58.1398 17.2985C57.6502 17.0871 57.2139 16.7692 56.8625 16.368C56.5123 15.9722 56.2445 15.5105 56.0747 15.01C55.8853 14.4819 55.7902 13.9245 55.7936 13.3635C55.7581 12.3056 56.0818 11.2669 56.7119 10.4167C57.0336 9.98884 57.454 9.64529 57.9372 9.41537C58.4205 9.18546 58.9522 9.07601 59.4869 9.09639C60.6486 9.09639 61.5694 9.50552 62.2242 10.3514C62.844 11.127 63.1626 12.1335 63.1626 13.3961C63.1827 14.6034 62.8816 15.6124 62.2619 16.3881ZM93.7926 6.08936H97.0543V20.6099H93.7926V6.08936ZM44.3024 6.07179C42.4457 6.07179 40.9269 6.63404 39.746 7.75853C39.2019 8.27359 38.7721 8.89722 38.4842 9.58904C38.1964 10.2809 38.0569 11.0255 38.075 11.7746C38.0569 12.4386 38.1777 13.0992 38.4296 13.7138C38.6814 14.3284 39.0589 14.8837 39.5378 15.3439C39.149 15.6368 38.8334 16.0159 38.6157 16.4514C38.398 16.8869 38.2842 17.367 38.2833 17.8539C38.276 18.3848 38.3453 18.9141 38.489 19.4252C38.6272 19.8994 38.9085 20.3193 39.2944 20.6275C37.8316 21.4608 37.1191 22.8188 37.1768 24.6787C37.1782 25.4375 37.3631 26.1846 37.7157 26.8564C38.0683 27.5282 38.5781 28.1046 39.2016 28.5366C40.5138 29.508 42.2575 29.9925 44.3952 29.9925C46.5329 29.9925 48.1261 29.5658 49.215 28.7123C50.3039 27.8589 50.8459 26.6365 50.8459 25.0276C50.8459 23.4187 50.4143 22.1963 49.5512 21.3253C49.026 20.8326 48.4167 20.4381 47.7523 20.1606C46.7596 19.7827 45.7279 19.5166 44.6762 19.3675C43.364 19.1541 42.4181 18.9207 41.8636 18.6295C41.6578 18.5581 41.4796 18.4238 41.3543 18.2455C41.2697 18.0635 41.231 17.8636 41.2414 17.6632C41.2414 17.4121 41.412 17.0607 41.7306 16.6165C42.5033 16.8773 43.3138 17.0079 44.1293 17.003C45.8856 17.003 47.3358 16.4608 48.4799 15.3564C48.9882 14.8459 49.3899 14.2392 49.6616 13.5718C49.9458 12.8531 50.0856 12.0855 50.0731 11.3128C50.0776 10.491 49.8848 9.68011 49.5111 8.94829C49.5111 8.94829 49.5111 8.92821 49.4935 8.92821H50.8609V6.07179H44.3024ZM42.0317 21.7595L42.7066 21.875C44.6009 22.1662 45.9508 22.5527 46.7211 23.0773C47.036 23.2562 47.2976 23.5159 47.4788 23.8296C47.6601 24.1433 47.7545 24.4996 47.7523 24.8619C47.7523 26.4132 46.6834 27.1687 44.5457 27.1687C43.2912 27.1687 42.2751 26.8976 41.4898 26.373C41.1495 26.1597 40.8662 25.8668 40.6643 25.5196C40.4555 25.1761 40.3509 24.7793 40.3632 24.3775C40.375 23.8858 40.5105 23.4049 40.7571 22.9794C41.0637 22.4648 41.5042 22.0431 42.0317 21.7595ZM46.1214 13.4413C45.6277 13.9153 44.9692 14.179 44.2848 14.1767C43.4548 14.2109 42.6444 13.9191 42.0267 13.3635C41.7774 13.1316 41.5739 12.8549 41.427 12.5477C41.2928 12.2492 41.2219 11.9262 41.2188 11.5989C41.218 11.2603 41.2819 10.9246 41.407 10.6099C41.821 9.50552 42.7393 8.96084 44.1819 8.96084C45.045 8.96084 45.74 9.19428 46.2268 9.65863C46.4736 9.89632 46.6681 10.183 46.7977 10.5003C46.9273 10.8175 46.9893 11.1584 46.9795 11.501C46.961 12.2358 46.6525 12.9334 46.1214 13.4413ZM111.373 9.23444C111.629 9.95981 111.755 10.7244 111.747 11.4935V20.5572H108.561V19.877C107.739 20.2934 106.837 20.5255 105.916 20.5572C105.051 20.5736 104.187 20.4757 103.347 20.2661C102.698 20.1 102.087 19.8102 101.548 19.4127C100.544 18.637 100.043 17.5326 100.043 16.0969C100.043 14.8168 100.642 13.7324 101.879 12.879C103.211 11.9478 105.03 11.4834 107.316 11.4834L107.843 11.501C107.896 11.501 107.951 11.501 108.006 11.501C108.061 11.501 108.132 11.501 108.199 11.501C108.267 11.501 108.32 11.5161 108.377 11.5211C108.435 11.5261 108.495 11.5211 108.556 11.5387C108.48 10.1054 107.881 9.25201 106.754 9.02861C106.365 8.94886 105.969 8.91016 105.572 8.91315C105.157 8.91134 104.743 8.95001 104.335 9.02861C103.936 9.11034 103.542 9.21425 103.154 9.33986C102.493 9.52299 101.879 9.84662 101.355 10.2887L101.317 10.2711L100.923 7.30422C102.463 6.47023 104.19 6.04262 105.941 6.06175C108.784 6.07179 110.585 7.12098 111.373 9.23444ZM108.561 17.1235V14.0035C108.318 13.9644 108.073 13.9451 107.828 13.9458H107.304C105.392 13.9458 104.172 14.3901 103.648 15.2636C103.499 15.5086 103.421 15.7901 103.422 16.0768C103.419 16.3356 103.47 16.5922 103.573 16.8298C103.688 17.0525 103.861 17.2398 104.075 17.372C104.526 17.6431 105.201 17.7786 106.082 17.7786C106.951 17.7772 107.804 17.5515 108.561 17.1235ZM123.733 12.49C124.236 12.7299 124.688 13.0658 125.062 13.4789C125.682 14.1767 126.001 15.1079 126.001 16.3102C126.015 16.9027 125.89 17.4902 125.636 18.0255C125.382 18.5609 125.006 19.0291 124.538 19.3926C123.534 20.2259 122.102 20.6476 120.273 20.6476C118.05 20.635 116.326 20.2535 115.119 19.5005V15.9237C115.119 15.9036 115.194 15.9814 115.325 16.137C115.553 16.3534 115.806 16.5422 116.078 16.6993C116.473 16.9431 116.894 17.1441 117.332 17.2992C118.367 17.6656 119.458 17.849 120.556 17.8414C122.062 17.8414 122.814 17.3193 122.814 16.2902C122.82 16.1392 122.782 15.9899 122.705 15.8597C122.629 15.7295 122.517 15.6237 122.383 15.5547C121.671 15.221 120.907 15.0113 120.125 14.9347C119.29 14.827 118.472 14.618 117.688 14.3122C117.114 14.0827 116.584 13.7549 116.123 13.3434C115.756 12.9795 115.469 12.5436 115.279 12.0633C115.089 11.5829 115 11.0685 115.019 10.5522C114.994 9.91819 115.122 9.28754 115.393 8.71379C115.664 8.14003 116.069 7.64013 116.574 7.25653C117.606 6.46084 119.031 6.07179 120.84 6.07179C122.519 6.02693 124.157 6.59229 125.451 7.66315C125.401 7.89216 125.339 8.11838 125.266 8.34086C125.057 8.94327 124.909 9.36998 124.814 9.62098L124.515 10.4167C124.506 10.4561 124.493 10.4947 124.478 10.5321C124.458 10.5321 124.382 10.4342 124.27 10.241C123.728 9.58333 122.865 9.15663 121.72 8.94327C121.364 8.86468 120.999 8.82512 120.634 8.8253C119.058 8.8253 118.271 9.30974 118.271 10.2987C118.266 10.4616 118.31 10.6222 118.397 10.7602C118.483 10.8982 118.609 11.0075 118.757 11.0743C119.549 11.4753 120.407 11.7304 121.289 11.8273C122.13 11.9355 122.952 12.1585 123.733 12.49ZM84.2584 6.07179C82.4017 6.07179 80.8829 6.63404 79.702 7.75853C79.1583 8.27372 78.7288 8.89743 78.4413 9.58926C78.1539 10.2811 78.015 11.0256 78.0335 11.7746C78.0151 12.4379 78.1352 13.0977 78.3863 13.7118C78.6373 14.326 79.0136 14.881 79.4912 15.3414C79.1022 15.634 78.7863 16.0131 78.5686 16.4486C78.3509 16.8842 78.2373 17.3644 78.2367 17.8514C78.2307 18.3823 78.3 18.9113 78.4425 19.4227C78.5818 19.897 78.8639 20.3168 79.2504 20.625C77.7876 21.4583 77.0751 22.8163 77.1303 24.6762C77.1316 25.4356 77.3167 26.1834 77.6697 26.8556C78.0228 27.5279 78.5332 28.1047 79.1575 28.5366C80.4698 29.508 82.2135 29.9925 84.3512 29.9925C86.4889 29.9925 88.0846 29.5658 89.171 28.7123C90.2574 27.8589 90.8019 26.6365 90.8019 25.0276C90.8019 23.4187 90.3703 22.1963 89.5097 21.3253C88.984 20.8321 88.3738 20.4375 87.7083 20.1606C86.7157 19.7824 85.6839 19.5163 84.6322 19.3675C83.32 19.1541 82.3741 18.9207 81.8196 18.6295C81.6164 18.5558 81.441 18.4207 81.3178 18.243C81.2332 18.061 81.1945 17.8611 81.2049 17.6606C81.2049 17.4096 81.373 17.0582 81.6916 16.614C82.4652 16.8746 83.2765 17.0052 84.0928 17.0005C85.8491 17.0005 87.2993 16.4583 88.4434 15.3539C88.9502 14.8426 89.3509 14.2361 89.6226 13.5693C89.9076 12.8508 90.0483 12.0831 90.0366 11.3102C90.0399 10.4886 89.8472 9.678 89.4746 8.94578C89.4746 8.94046 89.4725 8.93535 89.4687 8.93158C89.465 8.92782 89.4598 8.9257 89.4545 8.9257H90.8244V6.07179H84.2584ZM82.0003 21.7595L82.6752 21.875C84.5695 22.1662 85.9193 22.5527 86.6896 23.0773C87.0049 23.2558 87.2667 23.5154 87.448 23.8292C87.6293 24.143 87.7235 24.4995 87.7208 24.8619C87.7208 26.4132 86.652 27.1687 84.5143 27.1687C83.2598 27.1687 82.2562 26.8976 81.4583 26.373C81.1189 26.1587 80.8358 25.866 80.6328 25.5196C80.4248 25.1759 80.3211 24.7791 80.3343 24.3775C80.346 23.8858 80.4815 23.4049 80.7282 22.9794C81.0333 22.4645 81.4732 22.0428 82.0003 21.7595ZM86.0874 13.4413C85.5928 13.9155 84.9334 14.1791 84.2483 14.1767C83.4184 14.2104 82.6082 13.9186 81.9902 13.3635C81.7424 13.1303 81.5392 12.8539 81.3906 12.5477C81.2583 12.2487 81.1883 11.9259 81.1848 11.5989C81.1828 11.2601 81.2467 10.9242 81.373 10.6099C81.7845 9.50552 82.7028 8.96084 84.148 8.96084C85.0111 8.96084 85.7036 9.19428 86.1903 9.65863C86.4376 9.89594 86.6324 10.1825 86.7621 10.4999C86.8918 10.8173 86.9534 11.1583 86.943 11.501C86.934 11.8656 86.8528 12.2247 86.7042 12.5578C86.5557 12.8908 86.3426 13.1911 86.0774 13.4413H86.0874Z" fill="#161616"/>
</svg>
