<svg width="120" height="33" viewBox="0 0 120 33" fill="none" xmlns="http://www.w3.org/2000/svg">
<g clip-path="url(#clip0_868_827)">
<path fillRule="evenodd" clipRule="evenodd" d="M36.8602 2.299e-10H3.77347C3.27655 -6.40531e-06 2.78453 0.133846 2.32564 0.393867C1.86675 0.653889 1.45004 1.03496 1.09943 1.5152C0.748821 1.99545 0.471214 2.56542 0.282549 3.19238C0.0938835 3.81933 -0.00212485 4.49094 3.5669e-05 5.16863V22.391C-0.000272456 23.0699 0.0975445 23.7422 0.287893 24.3695C0.478241 24.9967 0.757387 25.5667 1.10937 26.0467C1.46135 26.5268 1.87926 26.9075 2.3392 27.1671C2.79915 27.4267 3.2921 27.5601 3.78988 27.5597H19.4532L26.6157 32.9936L24.975 27.5597H36.8414C37.339 27.5597 37.8317 27.4259 38.2914 27.1662C38.7511 26.9064 39.1687 26.5256 39.5204 26.0456C39.8722 25.5656 40.1511 24.9958 40.3413 24.3687C40.5315 23.7417 40.6292 23.0696 40.6289 22.391V5.16863C40.6296 3.80254 40.2334 2.49173 39.5271 1.52307C38.8208 0.5544 37.8618 0.00676257 36.8602 2.299e-10ZM3.07504 3.98915C2.87274 3.99031 2.67328 4.05424 2.49177 4.17607C2.31027 4.2979 2.15146 4.47445 2.02738 4.69236C1.91126 4.90859 1.82801 5.1543 1.78253 5.41504C1.73705 5.67579 1.73025 5.94629 1.76254 6.21067C2.74222 14.7089 3.65629 20.4423 4.50472 23.4107C4.83519 24.5007 5.21957 25.0089 5.6766 24.9769C6.37972 24.9066 7.20472 23.5929 8.18675 21.0325C8.693 19.5835 9.48753 17.4078 10.5703 14.5054C11.4672 18.7886 12.6914 22.0064 14.243 24.1587C14.6743 24.7724 15.1219 25.0441 15.5555 24.9993C15.7419 24.9791 15.9211 24.893 16.0757 24.7495C16.2302 24.606 16.3547 24.4101 16.4368 24.181C16.6066 23.7219 16.6773 23.2065 16.6407 22.6947C16.5399 20.633 16.6899 17.7562 17.1094 14.0643C17.543 10.2574 18.0727 7.51482 18.7219 5.88144C18.8533 5.54876 18.9111 5.17124 18.8883 4.79465C18.8741 4.54376 18.8207 4.29991 18.7318 4.07941C18.6428 3.85892 18.5204 3.66686 18.3727 3.51608C18.0805 3.18353 17.7044 3.02055 17.325 3.06219C17.0931 3.07738 16.8686 3.17818 16.6754 3.35382C16.4822 3.52947 16.3276 3.77336 16.2282 4.05947C15.1985 6.61662 14.4672 10.772 14.0344 16.5256C13.3298 14.0158 12.8016 11.4203 12.4571 8.77421C12.2743 7.4381 11.8243 6.80201 11.093 6.85635C10.5961 6.9011 10.1789 7.355 9.84847 8.21804L6.19925 17.6539C5.60238 14.368 5.043 10.3565 4.52113 5.61933C4.40394 4.44305 3.92191 3.89965 3.07504 3.98915ZM35.0977 5.61933C35.6563 5.76157 36.1848 6.07138 36.6449 6.52635C37.1049 6.98132 37.4851 7.57006 37.7578 8.25C38.3166 9.61523 38.5921 11.1623 38.5547 12.725C38.5702 14.9812 38.1238 17.1985 37.2657 19.1275C36.2672 21.3937 34.9711 22.5285 33.361 22.5285C33.059 22.5263 32.7581 22.4802 32.4633 22.391C31.9047 22.25 31.3761 21.941 30.9159 21.4865C30.4558 21.032 30.0756 20.4435 29.8032 19.7636C29.2501 18.3953 28.975 16.8504 29.0063 15.2885C28.9898 13.0339 29.439 10.8185 30.3024 8.89568C31.3149 6.62834 32.6164 5.49574 34.2071 5.49787C34.5062 5.49711 34.8046 5.53781 35.0977 5.61933ZM34.3946 17.8809C35.011 17.1329 35.4258 16.0237 35.6578 14.5278C35.7329 13.9742 35.7722 13.4127 35.775 12.8497C35.7687 12.1431 35.667 11.4442 35.475 10.788C35.2266 9.90575 34.8938 9.42948 34.4953 9.31441C33.8977 9.15779 33.3235 9.60848 32.7657 10.7208C32.3408 11.5289 32.0417 12.447 31.8867 13.4186C31.8044 13.9622 31.7651 14.5162 31.7696 15.0712C31.7759 15.7777 31.8776 16.4766 32.0696 17.1329C32.318 18.0183 32.6508 18.4946 33.0492 18.6064C33.4477 18.7183 33.9188 18.4722 34.3993 17.8809H34.3946ZM27.3328 8.25C27.0585 7.57174 26.6779 6.98434 26.2181 6.52964C25.7583 6.07493 25.2306 5.76412 24.6727 5.61933C24.3776 5.53268 24.0768 5.4877 23.775 5.48508C22.1813 5.48508 20.8852 6.61662 19.8703 8.88289C19.008 10.8063 18.5589 13.0213 18.5743 15.2758C18.5437 16.8379 18.8196 18.3828 19.3735 19.7508C19.6444 20.433 20.0236 21.024 20.4834 21.4808C20.9433 21.9376 21.4721 22.2486 22.0313 22.391C22.3261 22.48 22.627 22.5261 22.9289 22.5285C24.5414 22.5285 25.8375 21.3937 26.8336 19.1275C27.6938 17.196 28.1411 14.9751 28.125 12.7154C28.1651 11.157 27.8928 9.61314 27.3375 8.25H27.3328ZM25.2375 14.5278C25.0032 16.0237 24.5907 17.1329 23.9766 17.8809C23.4938 18.4722 23.0391 18.7215 22.6289 18.6064C22.2188 18.4914 21.8977 18.0183 21.6493 17.1329C21.4573 16.4766 21.3556 15.7777 21.3492 15.0712C21.3448 14.5162 21.3841 13.9622 21.4664 13.4186C21.6223 12.4469 21.9222 11.5288 22.3477 10.7208C22.8961 9.60848 23.4774 9.15779 24.075 9.31441C24.4735 9.42948 24.8063 9.90575 25.0547 10.788C25.2476 11.4439 25.3493 12.143 25.3547 12.8497C25.3616 13.4129 25.3239 13.9756 25.2422 14.5278H25.2375Z" fill="#7F54B3"/>
<path fillRule="evenodd" clipRule="evenodd" d="M44.8531 8.04468C43.7398 9.54061 43.1914 11.4457 43.1914 13.7567C43.1914 16.2276 43.7398 18.2317 44.832 19.7628C45.9242 21.2939 47.3633 22.0547 49.1398 22.0547C49.7261 22.0455 50.3085 21.9228 50.8695 21.6903V18.0176C50.3794 18.2248 49.8707 18.3388 49.3578 18.3564C48.9633 18.3771 48.5702 18.2804 48.2059 18.0728C47.8416 17.8652 47.5149 17.5519 47.2484 17.1545C46.7164 16.3394 46.4516 15.2367 46.4516 13.8686C46.4177 12.7169 46.6955 11.5883 47.232 10.6977C47.4705 10.2984 47.7726 9.97855 48.1154 9.76252C48.4582 9.54649 48.8326 9.43999 49.2102 9.45111C49.7728 9.46049 50.3318 9.57448 50.8719 9.78994V6.11723C50.2799 5.91231 49.6709 5.81346 49.0602 5.82316C48.2847 5.7805 47.5111 5.9557 46.7874 6.33785C46.0637 6.72001 45.4053 7.30097 44.8531 8.04468ZM56.3867 5.80718C54.8586 5.80718 53.6609 6.51039 52.7961 7.89125C51.9312 9.27211 51.5164 11.2251 51.5164 13.7184C51.5164 16.4129 51.95 18.4778 52.7961 19.9035C53.6422 21.3291 54.8914 22.0547 56.5203 22.0547C58.0977 22.0547 59.3117 21.3291 60.1578 19.9003C61.0039 18.4715 61.4375 16.4577 61.4375 13.8718C61.4375 11.2859 61.0062 9.29448 60.1414 7.88805C59.2766 6.48162 58.0156 5.80078 56.3867 5.80078V5.80718ZM57.6992 17.5924C57.5625 17.8968 57.3689 18.146 57.1383 18.3145C56.9076 18.483 56.6482 18.5648 56.3867 18.5514C56.1391 18.5608 55.8944 18.4761 55.68 18.3067C55.4656 18.1374 55.2899 17.8901 55.1727 17.5924C54.8914 16.9531 54.7578 15.6906 54.7578 13.7567C54.7578 10.7872 55.3062 9.31367 56.4195 9.31367C57.5914 9.31367 58.182 10.8096 58.182 13.8238C58.1656 15.6842 57.9992 16.9404 57.6992 17.5796V17.5924ZM69.6523 6.2387L69.0547 9.70683C68.9047 10.589 68.7547 11.4968 68.6211 12.427L68.2906 14.8275C67.9781 12.4281 67.5461 9.56512 66.9945 6.2387H63.1344L61.6883 21.6711H64.5781L65.3609 11.0429L67.3367 21.6711H69.3992L71.293 11.0653L72.1062 21.6711H75.132L73.5945 6.2323L69.6523 6.2387ZM83.4945 6.2387L82.8969 9.70683C82.7469 10.589 82.5992 11.4968 82.4656 12.427L82.1328 14.8275C81.8203 12.4281 81.3883 9.56512 80.8367 6.2387H76.9766L75.5305 21.6711H78.4226L79.2031 11.0429L81.1812 21.6711H83.2414L85.1164 11.0653L85.932 21.6711H88.9555L87.4226 6.2323L83.4945 6.2387ZM92.9023 15.5755H95.6094V12.379H92.8976V9.547H96.0219V6.25468H89.8391V21.6871H96.0383V18.4011H92.8976L92.9023 15.5755ZM104.649 13.127C104.957 12.4789 105.124 11.7255 105.132 10.9534C105.149 10.2833 105.044 9.6179 104.826 9.01662C104.609 8.41534 104.285 7.89692 103.885 7.50768C103.055 6.67022 101.909 6.22911 100.48 6.22911H96.9172V21.6615H99.9758V14.6293H100.025L102.502 21.6615H105.725L103.283 14.7029C103.843 14.375 104.318 13.8234 104.645 13.1206L104.649 13.127ZM99.9617 12.8777V9.20179C100.693 9.22416 101.209 9.38079 101.525 9.70044C101.841 10.0201 101.994 10.5155 101.994 11.2411C101.987 12.3055 101.305 12.8489 99.9594 12.8713L99.9617 12.8777ZM106.925 8.05107C105.812 9.54701 105.263 11.4521 105.263 13.7631C105.263 16.2339 105.812 18.2381 106.904 19.7692C107.996 21.3003 109.43 22.0547 111.209 22.0547C111.795 22.0457 112.377 21.923 112.937 21.6903V18.0176C112.447 18.2253 111.938 18.3393 111.425 18.3564C111.03 18.3771 110.637 18.2804 110.273 18.0728C109.909 17.8652 109.582 17.5519 109.316 17.1545C108.784 16.3394 108.519 15.2367 108.519 13.8686C108.485 12.7169 108.763 11.5883 109.299 10.6977C109.537 10.2988 109.839 9.97924 110.182 9.76323C110.524 9.54722 110.898 9.44048 111.275 9.45111C111.838 9.46049 112.397 9.57448 112.937 9.78994V6.11723C112.346 5.91216 111.737 5.8133 111.127 5.82316C110.352 5.78285 109.58 5.95913 108.857 6.34117C108.134 6.72321 107.475 7.30293 106.923 8.04468L106.925 8.05107ZM116.846 18.3628V15.5531H119.553V12.3567H116.844V9.52463H119.984V6.2323H113.802V21.6647H120.001V18.3788H116.844L116.846 18.3628Z" fill="black"/>
</g>
<defs>
<clipPath id="clip0_868_827">
<rect width="120" height="33" fill="white"/>
</clipPath>
</defs>
</svg>
