<?xml version="1.0" standalone="no"?>
<!DOCTYPE svg PUBLIC "-//W3C//DTD SVG 20010904//EN"
 "http://www.w3.org/TR/2001/REC-SVG-20010904/DTD/svg10.dtd">
<svg version="1.0" xmlns="http://www.w3.org/2000/svg"
 width="700.000000pt" height="700.000000pt" viewBox="0 0 700.000000 700.000000"
 preserveAspectRatio="xMidYMid meet">
<metadata>
Created by potrace 1.14, written by Peter Selinger 2001-2017
</metadata>
<g transform="translate(0.000000,700.000000) scale(0.100000,-0.100000)"
fill="#000000" stroke="none">
<path d="M3255 6904 c-317 -19 -611 -74 -890 -164 -1018 -332 -1826 -1124
-2175 -2135 -257 -745 -248 -1568 27 -2309 58 -157 212 -470 303 -615 444
-712 1149 -1245 1951 -1475 333 -96 589 -131 954 -130 279 0 416 13 652 59
952 185 1785 773 2284 1611 539 906 627 2016 238 3000 -432 1094 -1394 1886
-2554 2103 -222 42 -587 67 -790 55z m185 -1784 l0 -320 -230 0 -230 0 0 115
0 115 -330 0 -330 0 0 198 c0 109 3 202 7 205 3 4 255 7 560 7 l553 0 0 -320z
m-2 -1732 l-3 -983 -28 -100 c-34 -126 -120 -301 -189 -385 -131 -159 -318
-276 -524 -329 -227 -59 -519 -55 -730 10 -307 93 -550 353 -648 693 -34 118
-34 123 12 135 47 13 331 79 356 83 15 2 22 -9 37 -60 55 -194 180 -363 314
-427 101 -47 168 -60 325 -59 131 0 152 3 223 27 196 68 310 198 369 418 22
84 22 89 25 1022 l4 937 230 0 230 0 -3 -982z m1497 913 c243 -50 462 -191
610 -392 54 -74 68 -53 -124 -194 l-134 -98 -20 29 c-11 16 -59 68 -107 115
-65 65 -106 96 -161 123 -120 58 -183 71 -354 70 -135 0 -158 -3 -230 -27
-186 -62 -277 -195 -262 -382 8 -96 24 -139 70 -191 78 -88 163 -123 515 -210
144 -35 302 -80 351 -100 205 -82 342 -193 418 -339 64 -124 77 -185 77 -360
0 -181 -14 -248 -83 -390 -103 -211 -280 -343 -557 -416 -80 -22 -110 -24
-304 -24 -189 0 -226 3 -302 22 -197 50 -350 133 -495 267 -61 57 -153 162
-176 203 -6 10 52 63 273 249 13 11 26 0 85 -72 166 -202 340 -295 584 -310
289 -19 498 96 563 309 30 100 23 240 -15 320 -64 130 -174 181 -617 287 -462
110 -690 279 -767 570 -12 46 -17 104 -17 200 0 158 14 223 75 350 34 69 58
101 129 172 72 72 103 94 181 132 102 49 244 91 360 106 104 13 328 3 434 -19z"/>
</g>
</svg>
