<svg width="130" height="106" viewBox="0 0 130 106" fill="none" xmlns="http://www.w3.org/2000/svg">
<path fill-rule="evenodd" clip-rule="evenodd" d="M75.0584 76.2945C64.7834 86.9969 52.2213 96.4847 38.0397 100.024C32.8798 101.313 27.7646 101.354 22.5272 101.444C22.1599 101.451 21.8613 101.151 21.8614 100.775C21.8632 100.399 22.1632 100.088 22.5327 100.083C27.6689 99.9934 32.6863 99.9651 37.7465 98.7016C51.7269 95.2124 64.0896 85.8191 74.2034 75.2588L74.0596 75.0904C72.4942 73.2657 72.1611 69.9696 72.735 66.2109C73.557 60.823 76.1708 54.4723 79.037 50.5032C80.3253 48.7199 81.6781 47.4132 82.9373 46.8233C83.9188 46.3628 84.8619 46.3113 85.7197 46.7101C87.547 47.5614 88.1583 49.8264 87.7846 52.8038C87.0047 59.0309 82.1135 68.4845 78.9924 72.0202C78.0174 73.1239 77.0186 74.2222 75.9958 75.3077C76.2624 75.6365 76.5249 75.9573 76.7941 76.2571C77.5637 77.1092 78.404 77.7999 79.7022 78.039C81.7259 78.4095 83.8687 77.8921 85.9412 76.9542C89.1748 75.4882 92.2329 72.9869 94.4347 70.9764C106.697 59.7791 110.366 46.0665 110.76 33.3673C111.157 20.5422 108.228 8.73573 107.334 1.50099C107.288 1.12897 107.548 0.784478 107.914 0.729361C108.28 0.674244 108.615 0.932359 108.66 1.30493C109.56 8.58625 112.495 20.4728 112.095 33.3834C111.692 46.42 107.902 60.4879 95.3163 71.983C93.0228 74.0773 89.8312 76.6707 86.4639 78.1969C84.1324 79.2524 81.7168 79.7965 79.4394 79.3794C77.3958 79.0041 76.2594 77.7529 75.0584 76.2945ZM75.1443 74.2653L75.0719 74.1822C73.7033 72.5873 73.5532 69.6807 74.0556 66.3942C74.8453 61.2169 77.3525 55.1122 80.1087 51.2965C81.0529 49.9877 82.0207 48.9537 82.9607 48.3457C83.7366 47.8453 84.4776 47.6405 85.1435 47.9519C85.7739 48.2431 86.1545 48.8024 86.3597 49.5308C86.602 50.3855 86.6102 51.4546 86.4601 52.6573C85.7101 58.641 81.0069 67.7231 78.0074 71.1201C77.0751 72.1745 76.1213 73.2245 75.1443 74.2653Z" fill="white" fill-opacity="0.5"/>
<path fill-rule="evenodd" clip-rule="evenodd" d="M20.8902 99.9278C21.0279 100.188 21.3183 100.478 21.6343 100.786C22.3861 101.52 23.3625 102.244 23.8088 102.605C24.0954 102.838 24.1365 103.267 23.904 103.563C23.6698 103.86 23.249 103.912 22.9624 103.679C22.4163 103.237 21.1169 102.269 20.3099 101.379C19.8773 100.901 19.5855 100.424 19.5057 100.04C19.3687 99.3857 19.7492 98.8259 20.7432 98.5296C21.9191 98.1798 24.2615 98.0697 25.867 96.7677C26.1578 96.531 26.5799 96.5776 26.8045 96.8699C27.0313 97.1634 26.9784 97.5927 26.6859 97.8299C25.1547 99.0703 23.041 99.3985 21.6426 99.7024C21.377 99.7605 21.0709 99.8635 20.8902 99.9278Z" fill="white" fill-opacity="0.5"/>
</svg>
