<svg width="197" height="38" viewBox="0 0 197 38" fill="none" xmlns="http://www.w3.org/2000/svg">
<circle cx="18.565" cy="19.0513" r="18.565" fill="url(#paint0_linear_525_315)"/>
<path fillRule="evenodd" clipRule="evenodd" d="M18.6837 11.9205V8.50537H12.6241V10.7035H16.1886V23.4168C16.1886 24.7436 15.8915 25.7337 15.2975 26.3872C14.7034 27.0407 13.8717 27.3674 12.8023 27.3674C11.733 27.3674 10.9211 27.0902 10.3666 26.5357C9.81212 25.9614 9.43587 25.2287 9.23785 24.3376L6.98035 24.8723C7.25758 26.2981 7.88137 27.4466 8.8517 28.318C9.84183 29.1695 11.1389 29.5952 12.7429 29.5952C13.6142 29.5952 14.4162 29.4665 15.1489 29.2091C15.8816 28.9318 16.5054 28.5457 17.0203 28.0506C17.555 27.5556 17.9609 26.9516 18.2381 26.2387C18.5352 25.5258 18.6837 24.7337 18.6837 23.8624V14.2968H16.1889V11.9205H18.6837Z" fill="white"/>
<path fillRule="evenodd" clipRule="evenodd" d="M19.9842 27.2214C20.5752 28.0289 21.2948 28.6686 22.1423 29.1379L22.1449 29.1393C23.0028 29.5999 24.0296 29.8248 25.2161 29.8248C25.9989 29.8248 26.7056 29.7193 27.3331 29.5041C27.9702 29.2902 28.5153 28.9884 28.9634 28.5954C29.4126 28.2015 29.753 27.7201 29.9839 27.1542C30.2288 26.5877 30.3492 25.9604 30.3492 25.2758C30.3492 24.1585 30.0204 23.24 29.3444 22.5447C28.6734 21.8545 27.6088 21.3608 26.1864 21.041L26.1858 21.0409L25.022 20.7737C24.1394 20.5717 23.5024 20.3077 23.0902 19.9944C22.721 19.6909 22.5234 19.2426 22.5234 18.6109C22.5234 17.8844 22.7605 17.3778 23.2072 17.0465L23.208 17.0459C23.6871 16.6872 24.3551 16.495 25.2365 16.495C26.0393 16.495 26.6926 16.6474 27.208 16.9385C27.736 17.2368 28.1883 17.6457 28.565 18.1688L28.7003 18.3567L30.3535 17.1414L30.2268 16.9583C29.6757 16.1617 28.994 15.5527 28.1819 15.1365C27.3793 14.7183 26.4219 14.5144 25.3183 14.5144C24.6046 14.5144 23.9421 14.6059 23.3325 14.7912C22.7361 14.963 22.2124 15.2221 21.7651 15.5708L21.7636 15.5719L21.7622 15.5731C21.3253 15.9249 20.9839 16.3645 20.7381 16.8885C20.4902 17.4171 20.369 18.0134 20.369 18.6726C20.369 19.8335 20.7271 20.7648 21.466 21.4343L21.4678 21.436L21.4696 21.4375C22.2026 22.0742 23.2433 22.539 24.572 22.8455L24.5722 22.8455L25.7361 23.1128L25.7366 23.1129C26.663 23.3292 27.2917 23.6128 27.6572 23.944C28.0066 24.2606 28.1949 24.7201 28.1949 25.3581C28.1949 26.1247 27.9438 26.7182 27.4528 27.163L27.4507 27.165C26.9765 27.6056 26.2648 27.8442 25.2774 27.8442C24.4792 27.8442 23.7977 27.6799 23.2251 27.36C22.6437 27.0215 22.1078 26.5301 21.6193 25.8788L21.4737 25.6846L19.8579 27.0488L19.9842 27.2214Z" fill="white"/>
<path d="M55.8546 9.28946V21.3984C55.8546 22.1294 55.7354 22.7889 55.497 23.3769C55.2586 23.9648 54.917 24.4733 54.472 24.9024C54.043 25.3156 53.5106 25.6413 52.875 25.8797C52.2552 26.1022 51.564 26.2134 50.8012 26.2134C49.3551 26.2134 48.211 25.832 47.3687 25.0693C46.5424 24.2906 46.018 23.2815 45.7955 22.042L48.2745 21.4938C48.4176 22.2089 48.6877 22.773 49.085 23.1862C49.4981 23.5993 50.0702 23.8059 50.8012 23.8059C51.5163 23.8059 52.0884 23.5835 52.5174 23.1385C52.9465 22.6936 53.161 22.0182 53.161 21.1124V11.5301H47.7263V9.28946H55.8546Z" fill="white"/>
<path d="M59.8651 25.9274V9.28946H70.52V11.6731H62.5586V16.2974H69.7811V18.6811H62.5586V23.5437H70.52V25.9274H59.8651Z" fill="white"/>
<path d="M80.1684 11.6731V25.9274H77.4749V11.6731H72.5169V9.28946H85.1264V11.6731H80.1684Z" fill="white"/>
<path d="M98.3671 26.2134C96.9687 26.2134 95.7768 25.9592 94.7916 25.4506C93.8222 24.9421 92.988 24.2588 92.2887 23.4007L94.148 21.6606C94.736 22.3757 95.3796 22.916 96.0788 23.2815C96.7939 23.647 97.6043 23.8298 98.5101 23.8298C99.5748 23.8298 100.377 23.5914 100.918 23.1147C101.458 22.6379 101.728 21.9943 101.728 21.1839C101.728 20.5324 101.537 20.0159 101.156 19.6345C100.775 19.2531 100.099 18.9671 99.1298 18.7764L97.652 18.5142C96.0311 18.2123 94.8154 17.6799 94.005 16.9172C93.1945 16.1544 92.7893 15.1056 92.7893 13.7707C92.7893 13.0397 92.9244 12.3803 93.1945 11.7923C93.4806 11.1884 93.8699 10.6879 94.3625 10.2906C94.871 9.87743 95.4828 9.5596 96.1979 9.33713C96.913 9.11466 97.7155 9.00342 98.6054 9.00342C99.8608 9.00342 100.949 9.22589 101.871 9.67084C102.793 10.0999 103.579 10.7276 104.231 11.5539L102.348 13.2225C101.919 12.6663 101.394 12.2214 100.775 11.8876C100.155 11.5539 99.3841 11.3871 98.4624 11.3871C97.509 11.3871 96.77 11.5778 96.2456 11.9592C95.7212 12.3405 95.459 12.8967 95.459 13.6277C95.459 14.3269 95.6735 14.8513 96.1026 15.2009C96.5317 15.5346 97.1991 15.7889 98.1049 15.9637L99.5827 16.2736C101.251 16.5914 102.467 17.1317 103.23 17.8945C104.008 18.6572 104.398 19.706 104.398 21.0409C104.398 21.8195 104.263 22.5267 103.993 23.1623C103.722 23.798 103.325 24.3462 102.801 24.8071C102.292 25.252 101.664 25.6016 100.918 25.8559C100.171 26.0942 99.3205 26.2134 98.3671 26.2134Z" fill="white"/>
<path d="M110.182 9.28946V19.5392C110.182 20.9535 110.452 22.0182 110.992 22.7333C111.533 23.4484 112.454 23.8059 113.757 23.8059C115.06 23.8059 115.982 23.4484 116.522 22.7333C117.063 22.0182 117.333 20.9535 117.333 19.5392V9.28946H119.979V19.1101C119.979 20.3337 119.867 21.3905 119.645 22.2804C119.422 23.1703 119.065 23.9092 118.572 24.4972C118.08 25.0693 117.436 25.4983 116.642 25.7844C115.863 26.0704 114.901 26.2134 113.757 26.2134C112.613 26.2134 111.644 26.0704 110.849 25.7844C110.071 25.4983 109.435 25.0693 108.942 24.4972C108.45 23.9092 108.092 23.1703 107.87 22.2804C107.647 21.3905 107.536 20.3337 107.536 19.1101V9.28946H110.182Z" fill="white"/>
<path d="M123.972 25.9274V9.28946H131.123C132.665 9.28946 133.857 9.74235 134.699 10.6481C135.541 11.5539 135.962 12.7696 135.962 14.2951C135.962 15.8207 135.541 17.0363 134.699 17.9421C133.857 18.8479 132.665 19.3008 131.123 19.3008H126.666V25.9274H123.972ZM126.666 16.941H130.956C131.64 16.941 132.172 16.7662 132.554 16.4166C132.935 16.0511 133.126 15.5346 133.126 14.8672V13.7231C133.126 13.0556 132.935 12.5471 132.554 12.1975C132.172 11.832 131.64 11.6493 130.956 11.6493H126.666V16.941Z" fill="white"/>
<path d="M138.917 25.9274V9.28946H146.068C147.609 9.28946 148.801 9.74235 149.643 10.6481C150.485 11.5539 150.907 12.7696 150.907 14.2951C150.907 15.8207 150.485 17.0363 149.643 17.9421C148.801 18.8479 147.609 19.3008 146.068 19.3008H141.61V25.9274H138.917ZM141.61 16.941H145.901C146.584 16.941 147.117 16.7662 147.498 16.4166C147.879 16.0511 148.07 15.5346 148.07 14.8672V13.7231C148.07 13.0556 147.879 12.5471 147.498 12.1975C147.117 11.832 146.584 11.6493 145.901 11.6493H141.61V16.941Z" fill="white"/>
<path d="M160.297 26.2134C159.216 26.2134 158.231 26.0307 157.341 25.6652C156.467 25.2838 155.713 24.7356 155.077 24.0205C154.457 23.2895 153.972 22.3916 153.623 21.3269C153.289 20.2463 153.122 19.0068 153.122 17.6084C153.122 16.21 153.289 14.9785 153.623 13.9138C153.972 12.8332 154.457 11.9353 155.077 11.2202C155.713 10.4892 156.467 9.94099 157.341 9.5755C158.231 9.19411 159.216 9.00342 160.297 9.00342C161.378 9.00342 162.355 9.19411 163.229 9.5755C164.119 9.94099 164.874 10.4892 165.493 11.2202C166.129 11.9353 166.614 12.8332 166.947 13.9138C167.297 14.9785 167.472 16.21 167.472 17.6084C167.472 19.0068 167.297 20.2463 166.947 21.3269C166.614 22.3916 166.129 23.2895 165.493 24.0205C164.874 24.7356 164.119 25.2838 163.229 25.6652C162.355 26.0307 161.378 26.2134 160.297 26.2134ZM160.297 23.8059C160.933 23.8059 161.513 23.6947 162.037 23.4722C162.577 23.2497 163.03 22.9319 163.396 22.5188C163.777 22.0897 164.071 21.5732 164.278 20.9694C164.484 20.3655 164.588 19.6822 164.588 18.9194V16.2974C164.588 15.5346 164.484 14.8513 164.278 14.2475C164.071 13.6436 163.777 13.1351 163.396 12.7219C163.03 12.2929 162.577 11.9671 162.037 11.7446C161.513 11.5221 160.933 11.4109 160.297 11.4109C159.646 11.4109 159.058 11.5221 158.533 11.7446C158.009 11.9671 157.556 12.2929 157.174 12.7219C156.809 13.1351 156.523 13.6436 156.316 14.2475C156.11 14.8513 156.006 15.5346 156.006 16.2974V18.9194C156.006 19.6822 156.11 20.3655 156.316 20.9694C156.523 21.5732 156.809 22.0897 157.174 22.5188C157.556 22.9319 158.009 23.2497 158.533 23.4722C159.058 23.6947 159.646 23.8059 160.297 23.8059Z" fill="white"/>
<path d="M173.524 25.9274H170.831V9.28946H178.006C179.499 9.28946 180.675 9.74235 181.533 10.6481C182.392 11.538 182.821 12.7537 182.821 14.2951C182.821 15.487 182.542 16.4802 181.986 17.2747C181.446 18.0534 180.644 18.6016 179.579 18.9194L183.178 25.9274H180.175L176.838 19.2055H173.524V25.9274ZM177.815 16.941C178.498 16.941 179.031 16.7662 179.412 16.4166C179.793 16.0511 179.984 15.5346 179.984 14.8672V13.7231C179.984 13.0556 179.793 12.5471 179.412 12.1975C179.031 11.832 178.498 11.6493 177.815 11.6493H173.524V16.941H177.815Z" fill="white"/>
<path d="M192.042 11.6731V25.9274H189.348V11.6731H184.39V9.28946H197V11.6731H192.042Z" fill="white"/>
<defs>
<linearGradient id="paint0_linear_525_315" x1="9.34439" y1="0.486327" x2="30.6323" y2="32.6657" gradientUnits="userSpaceOnUse">
<stop stop-color="#6698FF"/>
<stop offset="1" stop-color="#0044D1"/>
</linearGradient>
</defs>
</svg>
