<svg width="196" height="37" viewBox="0 0 196 37" fill="none" xmlns="http://www.w3.org/2000/svg">
<circle cx="18.4708" cy="18.5294" r="18.4708" fill="url(#paint0_linear_525_336)"/>
<path fillRule="evenodd" clipRule="evenodd" d="M18.5888 11.4344V8.03662H12.5599V10.2236H16.1063V22.8723C16.1063 24.1924 15.8108 25.1775 15.2197 25.8277C14.6287 26.4778 13.8012 26.8029 12.7372 26.8029C11.6733 26.8029 10.8655 26.5271 10.3139 25.9754C9.76223 25.4041 9.38789 24.6751 9.19087 23.7885L6.94482 24.3205C7.22065 25.739 7.84127 26.8817 8.80667 27.7486C9.79178 28.5958 11.0823 29.0194 12.6781 29.0194C13.545 29.0194 14.343 28.8914 15.0719 28.6352C15.8009 28.3594 16.4215 27.9752 16.9338 27.4827C17.4658 26.9901 17.8696 26.3892 18.1455 25.6799C18.441 24.9706 18.5888 24.1825 18.5888 23.3156V13.7987H16.1066V11.4344H18.5888Z" fill="white"/>
<path fillRule="evenodd" clipRule="evenodd" d="M19.8825 26.6576C20.4705 27.461 21.1864 28.0975 22.0296 28.5644L22.0322 28.5658C22.8858 29.0241 23.9074 29.2478 25.0878 29.2478C25.8667 29.2478 26.5698 29.1429 27.194 28.9287C27.8279 28.7159 28.3702 28.4156 28.8161 28.0247C29.263 27.6328 29.6017 27.1538 29.8315 26.5908C30.0751 26.0272 30.1949 25.403 30.1949 24.7219C30.1949 23.6103 29.8677 22.6964 29.1952 22.0047C28.5276 21.3179 27.4684 20.8268 26.0532 20.5086L26.0526 20.5085L24.8947 20.2426C24.0166 20.0417 23.3828 19.779 22.9727 19.4673C22.6054 19.1653 22.4088 18.7193 22.4088 18.0908C22.4088 17.3681 22.6447 16.864 23.0891 16.5343L23.0899 16.5337C23.5666 16.1769 24.2312 15.9857 25.1081 15.9857C25.9069 15.9857 26.5568 16.1374 27.0696 16.427C27.595 16.7237 28.0449 17.1306 28.4197 17.651L28.5543 17.8379L30.1991 16.6288L30.073 16.4466C29.5248 15.6541 28.8466 15.0481 28.0386 14.6341C27.2401 14.218 26.2875 14.0151 25.1895 14.0151C24.4794 14.0151 23.8203 14.1062 23.2138 14.2906C22.6204 14.4615 22.0994 14.7192 21.6543 15.0662L21.6529 15.0673L21.6514 15.0684C21.2168 15.4185 20.8771 15.8558 20.6326 16.3772C20.3859 16.9031 20.2654 17.4964 20.2654 18.1522C20.2654 19.3072 20.6216 20.2338 21.3568 20.9L21.3585 20.9016L21.3603 20.9031C22.0897 21.5366 23.1251 21.999 24.447 22.3039L24.4472 22.304L25.6052 22.5699L25.6057 22.57C26.5273 22.7852 27.1529 23.0674 27.5165 23.3968C27.8642 23.7119 28.0515 24.1691 28.0515 24.8038C28.0515 25.5665 27.8016 26.157 27.3132 26.5995L27.3111 26.6015C26.8393 27.0399 26.1312 27.2773 25.1488 27.2773C24.3547 27.2773 23.6767 27.1138 23.1069 26.7956C22.5285 26.4588 21.9953 25.9698 21.5093 25.3218L21.3644 25.1286L19.7568 26.4859L19.8825 26.6576Z" fill="white"/>
<path d="M55.571 8.81681V20.8643C55.571 21.5916 55.4524 22.2477 55.2152 22.8327C54.9781 23.4177 54.6381 23.9236 54.1955 24.3505C53.7686 24.7616 53.2389 25.0857 52.6065 25.3228C51.9899 25.5442 51.3022 25.6549 50.5433 25.6549C49.1045 25.6549 47.9662 25.2754 47.1282 24.5165C46.3061 23.7418 45.7843 22.7379 45.563 21.5046L48.0294 20.9592C48.1717 21.6707 48.4405 22.2319 48.8357 22.643C49.2468 23.0541 49.816 23.2596 50.5433 23.2596C51.2547 23.2596 51.8239 23.0382 52.2508 22.5956C52.6777 22.1529 52.8911 21.4809 52.8911 20.5797V11.0461H47.4839V8.81681H55.571Z" fill="#081827"/>
<path d="M59.5611 25.3703V8.81681H70.162V11.1884H62.241V15.7892H69.4268V18.1607H62.241V22.9987H70.162V25.3703H59.5611Z" fill="#081827"/>
<path d="M79.7614 11.1884V25.3703H77.0815V11.1884H72.1487V8.81681H84.6942V11.1884H79.7614Z" fill="#081827"/>
<path d="M97.8677 25.6549C96.4764 25.6549 95.2906 25.4019 94.3103 24.896C93.3459 24.39 92.5159 23.7102 91.8202 22.8564L93.67 21.1252C94.255 21.8367 94.8953 22.3742 95.591 22.7379C96.3024 23.1015 97.1088 23.2833 98.01 23.2833C99.0693 23.2833 99.8677 23.0462 100.405 22.5718C100.943 22.0975 101.212 21.4572 101.212 20.6509C101.212 20.0027 101.022 19.4888 100.642 19.1094C100.263 18.7299 99.591 18.4453 98.6266 18.2556L97.1562 17.9947C95.5435 17.6943 94.334 17.1647 93.5277 16.4058C92.7214 15.6469 92.3182 14.6034 92.3182 13.2753C92.3182 12.5481 92.4526 11.8919 92.7214 11.3069C93.006 10.7062 93.3933 10.2081 93.8835 9.81287C94.3894 9.4018 94.9981 9.08559 95.7096 8.86424C96.421 8.6429 97.2194 8.53223 98.1048 8.53223C99.3538 8.53223 100.437 8.75357 101.354 9.19626C102.271 9.62314 103.053 10.2477 103.702 11.0698L101.828 12.7299C101.401 12.1765 100.88 11.7338 100.263 11.4018C99.6463 11.0698 98.8795 10.9038 97.9625 10.9038C97.0139 10.9038 96.2787 11.0935 95.757 11.473C95.2352 11.8524 94.9744 12.4058 94.9744 13.133C94.9744 13.8287 95.1878 14.3504 95.6147 14.6983C96.0416 15.0303 96.7056 15.2833 97.6068 15.4572L99.0772 15.7655C100.737 16.0817 101.947 16.6192 102.706 17.3781C103.48 18.137 103.868 19.1805 103.868 20.5086C103.868 21.2833 103.733 21.9869 103.465 22.6193C103.196 23.2517 102.801 23.7971 102.279 24.2556C101.773 24.6983 101.148 25.0462 100.405 25.2991C99.6621 25.5363 98.8163 25.6549 97.8677 25.6549Z" fill="#081827"/>
<path d="M109.622 8.81681V19.0145C109.622 20.4216 109.891 21.4809 110.429 22.1924C110.966 22.9039 111.883 23.2596 113.18 23.2596C114.476 23.2596 115.393 22.9039 115.931 22.1924C116.468 21.4809 116.737 20.4216 116.737 19.0145V8.81681H119.37V18.5876C119.37 19.805 119.259 20.8564 119.038 21.7418C118.816 22.6272 118.46 23.3624 117.97 23.9473C117.48 24.5165 116.84 24.9434 116.049 25.228C115.275 25.5126 114.318 25.6549 113.18 25.6549C112.041 25.6549 111.077 25.5126 110.286 25.228C109.512 24.9434 108.879 24.5165 108.389 23.9473C107.899 23.3624 107.543 22.6272 107.322 21.7418C107.101 20.8564 106.99 19.805 106.99 18.5876V8.81681H109.622Z" fill="#081827"/>
<path d="M123.343 25.3703V8.81681H130.458C131.991 8.81681 133.177 9.26741 134.015 10.1686C134.853 11.0698 135.272 12.2793 135.272 13.7971C135.272 15.3149 134.853 16.5244 134.015 17.4256C133.177 18.3268 131.991 18.7774 130.458 18.7774H126.023V25.3703H123.343ZM126.023 16.4295H130.292C130.972 16.4295 131.501 16.2556 131.881 15.9078C132.26 15.5441 132.45 15.0303 132.45 14.3663V13.2279C132.45 12.5639 132.26 12.0579 131.881 11.7101C131.501 11.3465 130.972 11.1647 130.292 11.1647H126.023V16.4295Z" fill="#081827"/>
<path d="M138.212 25.3703V8.81681H145.326C146.86 8.81681 148.046 9.26741 148.884 10.1686C149.722 11.0698 150.14 12.2793 150.14 13.7971C150.14 15.3149 149.722 16.5244 148.884 17.4256C148.046 18.3268 146.86 18.7774 145.326 18.7774H140.891V25.3703H138.212ZM140.891 16.4295H145.16C145.84 16.4295 146.37 16.2556 146.749 15.9078C147.129 15.5441 147.318 15.0303 147.318 14.3663V13.2279C147.318 12.5639 147.129 12.0579 146.749 11.7101C146.37 11.3465 145.84 11.1647 145.16 11.1647H140.891V16.4295Z" fill="#081827"/>
<path d="M159.483 25.6549C158.408 25.6549 157.428 25.473 156.543 25.1094C155.673 24.73 154.922 24.1845 154.29 23.473C153.673 22.7458 153.191 21.8525 152.843 20.7932C152.511 19.7181 152.345 18.4849 152.345 17.0935C152.345 15.7022 152.511 14.4769 152.843 13.4176C153.191 12.3425 153.673 11.4492 154.29 10.7378C154.922 10.0105 155.673 9.46504 156.543 9.1014C157.428 8.72195 158.408 8.53223 159.483 8.53223C160.558 8.53223 161.531 8.72195 162.4 9.1014C163.286 9.46504 164.037 10.0105 164.653 10.7378C165.286 11.4492 165.768 12.3425 166.1 13.4176C166.448 14.4769 166.622 15.7022 166.622 17.0935C166.622 18.4849 166.448 19.7181 166.1 20.7932C165.768 21.8525 165.286 22.7458 164.653 23.473C164.037 24.1845 163.286 24.73 162.4 25.1094C161.531 25.473 160.558 25.6549 159.483 25.6549ZM159.483 23.2596C160.116 23.2596 160.693 23.1489 161.215 22.9276C161.752 22.7062 162.203 22.39 162.566 21.979C162.946 21.5521 163.238 21.0382 163.444 20.4374C163.649 19.8366 163.752 19.1568 163.752 18.3979V15.7892C163.752 15.0303 163.649 14.3504 163.444 13.7497C163.238 13.1489 162.946 12.6429 162.566 12.2319C162.203 11.805 161.752 11.4809 161.215 11.2595C160.693 11.0382 160.116 10.9275 159.483 10.9275C158.835 10.9275 158.25 11.0382 157.728 11.2595C157.207 11.4809 156.756 11.805 156.377 12.2319C156.013 12.6429 155.728 13.1489 155.523 13.7497C155.317 14.3504 155.215 15.0303 155.215 15.7892V18.3979C155.215 19.1568 155.317 19.8366 155.523 20.4374C155.728 21.0382 156.013 21.5521 156.377 21.979C156.756 22.39 157.207 22.7062 157.728 22.9276C158.25 23.1489 158.835 23.2596 159.483 23.2596Z" fill="#081827"/>
<path d="M172.643 25.3703H169.964V8.81681H177.102C178.588 8.81681 179.758 9.26741 180.612 10.1686C181.466 11.054 181.892 12.2635 181.892 13.7971C181.892 14.9829 181.616 15.971 181.062 16.7615C180.525 17.5362 179.726 18.0817 178.667 18.3979L182.248 25.3703H179.26L175.94 18.6825H172.643V25.3703ZM176.912 16.4295C177.592 16.4295 178.122 16.2556 178.501 15.9078C178.881 15.5441 179.07 15.0303 179.07 14.3663V13.2279C179.07 12.5639 178.881 12.0579 178.501 11.7101C178.122 11.3465 177.592 11.1647 176.912 11.1647H172.643V16.4295H176.912Z" fill="#081827"/>
<path d="M191.067 11.1884V25.3703H188.387V11.1884H183.454V8.81681H196V11.1884H191.067Z" fill="#081827"/>
<defs>
<linearGradient id="paint0_linear_525_336" x1="9.29696" y1="0.0585931" x2="30.4768" y2="32.0746" gradientUnits="userSpaceOnUse">
<stop stop-color="#6698FF"/>
<stop offset="1" stop-color="#0044D1"/>
</linearGradient>
</defs>
</svg>
