<svg width="18" height="16" viewBox="0 0 18 16" fill="none" xmlns="http://www.w3.org/2000/svg">
<path fillRule="evenodd" clipRule="evenodd" d="M9 2.59092V0H4.3401V1.66761H7.08122V11.3127C7.08122 12.3192 6.85279 13.0704 6.39594 13.5662C5.93909 14.062 5.29949 14.3099 4.47716 14.3099C3.65482 14.3099 3.03046 14.0995 2.60406 13.6789C2.17767 13.2432 1.88832 12.6873 1.73604 12.0113L0 12.4169C0.213198 13.4986 0.692893 14.37 1.43909 15.031C2.20051 15.677 3.19797 16 4.43147 16C5.10152 16 5.71827 15.9023 6.28173 15.707C6.84518 15.4967 7.32487 15.2038 7.72081 14.8282C8.13198 14.4526 8.44416 13.9944 8.65736 13.4535C8.88579 12.9127 9 12.3117 9 11.6507V4.39374H7.08144V2.59092H9Z" fill="white"/>
<path fillRule="evenodd" clipRule="evenodd" d="M10.0963 13.9595C10.5467 14.5924 11.0952 15.0938 11.7412 15.4616L11.7432 15.4627C12.3971 15.8237 13.1798 16 14.0842 16C14.6809 16 15.2195 15.9173 15.6978 15.7486C16.1834 15.581 16.5989 15.3444 16.9405 15.0364C17.2829 14.7277 17.5423 14.3503 17.7183 13.9068C17.905 13.4628 17.9967 12.9711 17.9967 12.4346C17.9967 11.5589 17.7461 10.8389 17.2309 10.294C16.7194 9.75299 15.908 9.3661 14.8237 9.11542L14.8233 9.11533L13.9362 8.90588C13.2635 8.7476 12.7779 8.54067 12.4637 8.29512C12.1823 8.05721 12.0317 7.70587 12.0317 7.21074C12.0317 6.64136 12.2124 6.2443 12.5529 5.98458L12.5535 5.98411C12.9187 5.70298 13.4279 5.55237 14.0997 5.55237C14.7117 5.55237 15.2096 5.67184 15.6024 5.89998C16.0049 6.13372 16.3496 6.45428 16.6368 6.86428L16.7399 7.01149L18 6.05901L17.9034 5.91545C17.4834 5.29112 16.9638 4.81377 16.3448 4.48761C15.733 4.1598 15.0032 4 14.162 4C13.618 4 13.1131 4.07172 12.6484 4.21698C12.1938 4.3516 11.7947 4.55467 11.4537 4.82797L11.4526 4.82886L11.4515 4.82975C11.1185 5.10553 10.8582 5.45007 10.6709 5.86075C10.4819 6.27504 10.3896 6.74243 10.3896 7.25911C10.3896 8.16898 10.6625 8.89896 11.2257 9.42372L11.2271 9.42498L11.2285 9.42622C11.7872 9.92524 12.5805 10.2895 13.5932 10.5297L13.5934 10.5298L14.4805 10.7392L14.4809 10.7393C15.187 10.9089 15.6662 11.1311 15.9448 11.3907C16.2112 11.6389 16.3547 11.9991 16.3547 12.499C16.3547 13.1 16.1633 13.5651 15.7891 13.9137L15.7875 13.9153C15.426 14.2607 14.8835 14.4476 14.1309 14.4476C13.5225 14.4476 13.0031 14.3189 12.5665 14.0682C12.1234 13.8028 11.7149 13.4176 11.3426 12.9072L11.2316 12.7549L10 13.8242L10.0963 13.9595Z" fill="white"/>
</svg>
