<svg width="21" height="20" viewBox="0 0 21 20" fill="none" xmlns="http://www.w3.org/2000/svg">
<path d="M4.51888 2.41665C4.51859 2.99129 4.29004 3.54227 3.88351 3.9484C3.47698 4.35452 2.92577 4.58252 2.35113 4.58224C1.77649 4.58195 1.22551 4.3534 0.819383 3.94687C0.413257 3.54034 0.18526 2.98912 0.185547 2.41449C0.185834 1.83985 0.414383 1.28886 0.820915 0.882737C1.22745 0.476612 1.77866 0.248614 2.3533 0.248902C2.92793 0.249189 3.47892 0.477738 3.88504 0.88427C4.29117 1.2908 4.51917 1.84202 4.51888 2.41665ZM4.58388 6.18665H0.250547V19.75H4.58388V6.18665ZM11.4305 6.18665H7.11888V19.75H11.3872V12.6325C11.3872 8.66749 16.5547 8.29915 16.5547 12.6325V19.75H20.8339V11.1592C20.8339 4.47498 13.1855 4.72415 11.3872 8.00665L11.4305 6.18665Z" fill="#558AFB"/>
</svg>
