<svg width="18" height="18" viewBox="0 0 18 18" fill="none" xmlns="http://www.w3.org/2000/svg">
<path d="M14.0271 12.8473L17.596 16.4162L16.4175 17.5947L12.8486 14.0258C11.5654 15.0525 9.93797 15.6666 8.16797 15.6666C4.02797 15.6666 0.667969 12.3066 0.667969 8.16662C0.667969 4.02663 4.02797 0.666626 8.16797 0.666626C12.308 0.666626 15.668 4.02663 15.668 8.16662C15.668 9.93662 15.0538 11.564 14.0271 12.8473ZM12.3552 12.229C13.3742 11.1788 14.0013 9.74629 14.0013 8.16662C14.0013 4.94371 11.3909 2.33329 8.16797 2.33329C4.94505 2.33329 2.33464 4.94371 2.33464 8.16662C2.33464 11.3895 4.94505 14 8.16797 14C9.74763 14 11.1801 13.3729 12.2303 12.3539L12.3552 12.229Z" fill="black"/>
</svg>
