<svg width="17" height="17" viewBox="0 0 17 17" fill="none" xmlns="http://www.w3.org/2000/svg">
<g clip-path="url(#clip0_696_3542)">
<path d="M14.8743 2.125C15.2653 2.125 15.5827 2.44233 15.5827 2.83333V12.75C15.5827 13.141 15.2653 13.4583 14.8743 13.4583H4.57164L1.41602 15.9375V2.83333C1.41602 2.44233 1.73335 2.125 2.12435 2.125H14.8743ZM7.7641 5.7375L7.44747 5.25017C6.18168 5.79912 5.31185 6.90979 5.31185 8.14937C5.31185 8.85417 5.50806 9.28908 5.87285 9.67654C6.10235 9.92021 6.46572 10.0938 6.8461 10.0938C7.53035 10.0938 8.08568 9.53842 8.08568 8.85417C8.08568 8.2025 7.58206 7.67762 6.94243 7.61812C6.8291 7.6075 6.71293 7.60962 6.60314 7.62521V7.56004C6.60739 7.26113 6.66831 6.40333 7.63306 5.81329L7.7641 5.7375ZM10.9891 5.25017C9.72335 5.79912 8.85352 6.90979 8.85352 8.14937C8.85352 8.85417 9.04972 9.28908 9.41452 9.67654C9.64402 9.92021 10.0074 10.0938 10.3878 10.0938C11.072 10.0938 11.6273 9.53842 11.6273 8.85417C11.6273 8.2025 11.1237 7.67762 10.4841 7.61812C10.3708 7.6075 10.2546 7.60962 10.1448 7.62521C10.1448 7.4035 10.1243 6.37713 11.3058 5.7375L10.9891 5.25017Z" fill="white"/>
</g>
<defs>
<clipPath id="clip0_696_3542">
<rect width="17" height="17" fill="white"/>
</clipPath>
</defs>
</svg>
