<svg width="28" height="28" viewBox="0 0 28 28" fill="none" xmlns="http://www.w3.org/2000/svg">
<path d="M23.9153 3.16992H23.0966V23.284C23.0966 24.6202 22.0088 25.7079 20.6726 25.7079H5.78076V26.4535C5.78076 27.3073 6.47374 28.0003 7.32755 28.0003H23.9123C24.7661 28.0003 25.4591 27.3073 25.4591 26.4535V4.71671C25.4591 3.8629 24.7691 3.16992 23.9153 3.16992Z" fill="white"/>
<path d="M12.3773 24.8304H20.6697C21.5235 24.8304 22.2165 24.1374 22.2165 23.2837V1.54678C22.2165 0.692982 21.5235 0 20.6697 0H9.61996V0.511696C9.62578 0.564327 9.62873 0.619883 9.62873 0.675439V4.91228C9.62873 6.11403 8.65213 7.09064 7.45037 7.09064H3.21353C3.16967 7.09064 3.12289 7.08772 3.07903 7.08479H2.54102V23.2837C2.54102 24.1374 3.234 24.8304 4.0878 24.8304H12.3773ZM12.6901 19.5731H7.28371C6.8802 19.5731 6.55271 19.2456 6.55271 18.8421C6.55271 18.4386 6.8802 18.1111 7.28371 18.1111H12.6931C13.0966 18.1111 13.4241 18.4386 13.4241 18.8421C13.4241 19.2456 13.0936 19.5731 12.6901 19.5731ZM18.0995 15.8421H7.28371C6.8802 15.8421 6.55271 15.5146 6.55271 15.1111C6.55271 14.7076 6.8802 14.3801 7.28371 14.3801H18.0995C18.503 14.3801 18.8305 14.7076 18.8305 15.1111C18.8305 15.5146 18.503 15.8421 18.0995 15.8421ZM7.28371 10.4181H18.0995C18.503 10.4181 18.8305 10.7456 18.8305 11.1491C18.8305 11.5526 18.503 11.8801 18.0995 11.8801H7.28371C6.8802 11.8801 6.55271 11.5526 6.55271 11.1491C6.55271 10.7456 6.8802 10.4181 7.28371 10.4181Z" fill="white"/>
<path d="M3.21344 6.2135H7.46198C8.16958 6.20765 8.74268 5.63455 8.74853 4.92695V0.675484C8.74853 0.283671 8.42689 0.0234375 8.09359 0.0234375C7.93277 0.0234375 7.77195 0.081917 7.63745 0.21642L2.75145 5.10238C2.3421 5.51174 2.63157 6.2135 3.21344 6.2135Z" fill="white"/>
</svg>
